<svg width="162" height="152" viewBox="0 0 162 152" fill="none" xmlns="http://www.w3.org/2000/svg">
<g id="favicon">
<g id="pw">
<g id="Artboard">
<g id="Frame 4">
<path id="Path" d="M131.321 101.491C127.192 101.491 125.044 102.98 123.15 104.294C121.424 105.491 119.934 106.524 116.806 106.524C113.678 106.524 112.187 105.491 110.462 104.294C108.568 102.98 106.421 101.491 102.291 101.491C98.22 101.491 96.095 102.975 94.2202 104.284C92.4987 105.486 91.0112 106.524 87.8742 106.524C84.8097 106.524 83.3398 105.498 81.638 104.31C79.7449 102.989 77.6013 101.491 73.4565 101.491C69.3853 101.491 67.2603 102.975 65.3855 104.284C63.6638 105.486 62.1767 106.524 59.0392 106.524C55.9753 106.524 54.5054 105.498 52.8034 104.31C50.9113 102.989 48.7667 101.491 44.6219 101.491C44.1946 101.491 43.7848 101.662 43.4826 101.966C43.1805 102.271 43.0107 102.684 43.0107 103.114C43.0107 103.545 43.1805 103.958 43.4826 104.263C43.7848 104.567 44.1946 104.738 44.6219 104.738C47.7596 104.738 49.2464 105.777 50.9681 106.979C52.8431 108.288 54.968 109.771 59.0392 109.771C63.1841 109.771 65.3287 108.274 67.2208 106.953C68.9227 105.764 70.3925 104.738 73.4565 104.738C76.5941 104.738 78.0811 105.777 79.8026 106.979C81.6773 108.288 83.8024 109.771 87.8742 109.771C92.0185 109.771 94.1632 108.274 96.0549 106.953C97.7574 105.764 99.2273 104.738 102.291 104.738C105.419 104.738 106.91 105.772 108.635 106.968C110.529 108.283 112.676 109.771 116.806 109.771C120.936 109.771 123.083 108.283 124.977 106.968C126.703 105.772 128.193 104.738 131.321 104.738C131.748 104.738 132.158 104.567 132.46 104.263C132.762 103.958 132.932 103.545 132.932 103.114C132.932 102.684 132.762 102.271 132.46 101.966C132.158 101.662 131.748 101.491 131.321 101.491Z" fill="#0083B0"/>
<path id="Shape" d="M97.7403 90.6878C98.8127 90.0846 100.152 89.5799 102.292 89.5799C105.42 89.5799 106.91 90.6077 108.635 91.7972C110.53 93.1028 112.677 94.5831 116.807 94.5831C120.936 94.5831 123.083 93.1028 124.977 91.7972C126.703 90.607 128.194 89.5799 131.321 89.5799C131.748 89.5799 132.158 89.41 132.461 89.1071C132.762 88.8048 132.932 88.3945 132.932 87.9665C132.932 87.5385 132.762 87.1275 132.461 86.8252C132.158 86.5223 131.748 86.3524 131.321 86.3524C127.192 86.3524 125.044 87.8327 123.15 89.1383C121.424 90.3285 119.934 91.3556 116.807 91.3556C113.679 91.3556 112.188 90.3278 110.463 89.1383C108.568 87.8327 106.421 86.3524 102.292 86.3524C101.208 86.3436 100.127 86.4645 99.0711 86.7138L106.5 64.5137C106.519 64.4546 106.536 64.3948 106.548 64.3343C107.447 60.073 107.448 55.383 106.554 50.7709C106.54 50.7014 106.522 50.633 106.5 50.5659L96.5106 20.7143C96.0887 18.7648 95.013 17.0191 93.4618 15.7683C91.9099 14.5176 89.9775 13.8373 87.9861 13.8411C83.9273 13.7705 80.346 16.6595 79.4337 20.7141L69.4441 50.5659C69.4245 50.6247 69.4083 50.6846 69.3954 50.7452C68.4966 55.0062 68.495 59.6966 69.3903 64.3085C69.4037 64.3778 69.4217 64.4464 69.4441 64.5137L76.8889 86.7627C75.7665 86.4808 74.613 86.3436 73.456 86.3531C69.3849 86.3531 67.2599 87.8286 65.3851 89.1295C63.6635 90.3244 62.1764 91.3563 59.039 91.3563C55.9751 91.3563 54.5052 90.336 52.8033 89.1546C50.9112 87.8415 48.7666 86.3531 44.6218 86.3531C44.1945 86.3531 43.7848 86.5236 43.4826 86.8259C43.1805 87.1289 43.0107 87.5392 43.0107 87.9672C43.0107 88.3951 43.1805 88.8055 43.4826 89.1084C43.7848 89.4107 44.1945 89.5806 44.6218 89.5806C47.7595 89.5806 49.2463 90.6124 50.968 91.8074C52.8429 93.1089 54.9678 94.5837 59.039 94.5837C63.1838 94.5837 65.3284 93.0953 67.2204 91.7822C68.9223 90.6009 70.3921 89.5806 73.456 89.5806C75.5955 89.5806 76.9678 90.0506 78.2338 90.7816L79.4296 94.3568C79.5178 94.7685 79.6365 95.1741 79.7844 95.5688C78.2494 94.689 76.3356 93.971 73.456 93.971C69.3849 93.971 67.2599 95.4458 65.3851 96.7467C63.6635 97.9416 62.1764 98.9735 59.039 98.9735C55.9751 98.9735 54.5052 97.9532 52.8033 96.7725C50.9112 95.4594 48.7666 93.971 44.6218 93.971C44.1945 93.971 43.7848 94.1408 43.4826 94.4438C43.1805 94.7461 43.0107 95.1564 43.0107 95.5844C43.0107 96.0123 43.1805 96.4233 43.4826 96.7256C43.7848 97.0279 44.1945 97.1984 44.6218 97.1984C47.7595 97.1984 49.2463 98.2303 50.968 99.4252C52.8429 100.726 54.9678 102.201 59.039 102.201C63.1838 102.201 65.3284 100.713 67.2204 99.3994C68.9223 98.2181 70.3921 97.1984 73.456 97.1984C76.5936 97.1984 78.0805 98.2303 79.802 99.4252C81.6768 100.726 83.8018 102.201 87.8735 102.201C92.0177 102.201 94.1624 100.713 96.0541 99.3994C97.7566 98.2181 99.2264 97.1984 102.29 97.1984C105.418 97.1984 106.909 98.2256 108.634 99.4151C110.528 100.721 112.675 102.201 116.805 102.201C120.935 102.201 123.081 100.721 124.976 99.4151C126.701 98.2249 128.192 97.1984 131.32 97.1984C131.747 97.1984 132.157 97.0279 132.459 96.7256C132.761 96.4233 132.931 96.0123 132.931 95.5844C132.931 95.1564 132.761 94.7461 132.459 94.4438C132.157 94.1408 131.747 93.971 131.32 93.971C127.191 93.971 125.043 95.4506 123.149 96.7562C121.423 97.9464 119.932 98.9735 116.805 98.9735C113.677 98.9735 112.186 97.9464 110.461 96.7562C108.566 95.4506 106.42 93.971 102.29 93.971C99.5439 93.971 97.6847 94.6428 96.1878 95.4791C96.3214 95.1129 96.4299 94.7379 96.5113 94.3568L97.7403 90.6878ZM72.5497 51.5149L82.5613 21.6468C82.5803 21.5861 82.5966 21.5244 82.6089 21.4619C82.8659 20.2185 83.5418 19.1007 84.523 18.2949C85.5042 17.4891 86.7323 17.044 88.0018 17.0336H88.0304C89.306 17.0336 90.5429 17.4742 91.5309 18.2812C92.5189 19.0882 93.1975 20.2119 93.4519 21.4619C93.4641 21.5227 93.4804 21.5828 93.4995 21.6418L103.507 51.4991C104.297 55.6282 104.298 59.8077 103.512 63.598L93.4995 93.467C93.4784 93.5316 93.4607 93.5976 93.4471 93.6642C92.948 96.1607 90.6646 98.0078 88.0161 98.0609C86.7472 98.0609 85.5172 97.6237 84.5332 96.8228C83.5493 96.022 82.8713 94.9063 82.6136 93.6642C82.6007 93.5976 82.583 93.5323 82.5613 93.4677L81.2285 89.4946C81.2006 89.3314 81.1476 89.1737 81.0721 89.0269L72.5537 63.6123C71.7641 59.4828 71.7625 55.3048 72.5497 51.5149Z" fill="#0083B0"/>
<path id="Path_2" d="M142.283 29.0981L135.881 61.5945C135.792 62.0432 136.084 62.4786 136.532 62.5671C136.663 62.593 136.798 62.5867 136.926 62.5489L143.741 60.5365C143.759 60.6422 143.778 60.7514 143.795 60.8525C145.614 72.3411 144.281 84.1092 139.938 94.8963C135.594 105.684 128.405 115.084 119.138 122.091C109.872 129.097 98.8774 133.446 87.3331 134.672C86.5639 134.753 86.0064 135.444 86.088 136.214C86.1627 136.919 86.7516 137.457 87.46 137.468C88.2618 137.48 89.035 137.466 89.7795 137.427C102.384 136.771 114.55 132.579 124.892 125.331C135.234 118.083 143.337 108.07 148.277 96.4318C153.216 84.7945 154.795 72.0002 152.831 59.508L160.481 59.5918C160.937 59.5968 161.312 59.2302 161.317 58.7729C161.318 58.6218 161.279 58.4731 161.202 58.343L143.807 28.8375C143.575 28.4436 143.068 28.3128 142.675 28.5452C142.471 28.6653 142.329 28.8664 142.283 29.0981Z" fill="#0083B0"/>
<path id="Path_3" d="M115.203 119.376C107.09 123.847 97.8877 126.414 88.6341 126.751C79.3799 127.088 70.1764 125.249 61.7621 121.381C53.3469 117.513 45.9552 111.724 40.1794 104.478C34.404 97.2315 30.4055 88.7305 28.5049 79.6566C26.6041 70.5832 26.8543 61.1892 29.2353 52.2286C31.6161 43.2686 36.0615 34.9912 42.2146 28.0614C48.3677 21.1315 56.0572 15.7419 64.666 12.3251C65.2082 12.1099 65.6775 11.9019 66.074 11.7011C66.4816 11.4947 66.6449 10.9966 66.4388 10.5885C66.2887 10.2915 65.9755 10.1133 65.6438 10.1362C63.6788 10.2719 61.0063 11.0518 57.626 12.4761C46.8466 17.018 37.5585 24.5017 30.8214 34.0736C24.0843 43.6455 20.1695 54.9202 19.5236 66.6111C18.8776 78.3026 21.5266 89.9393 27.1681 100.195C32.8099 110.449 41.217 118.91 51.4305 124.611C61.6444 130.312 73.253 133.023 84.9326 132.435C96.6126 131.848 107.892 127.986 117.487 121.289C118.12 120.847 118.276 119.974 117.834 119.34C117.416 118.74 116.607 118.564 115.978 118.935C115.718 119.088 115.459 119.235 115.203 119.376Z" fill="#0083B0"/>
</g>
</g>
</g>
</g>
</svg>
